<?xml version="1.0" encoding="utf-8"?>
<!-- Generator: Adobe Illustrator 24.3.0, SVG Export Plug-In . SVG Version: 6.00 Build 0)  -->
<svg version="1.1" xmlns="http://www.w3.org/2000/svg" xmlns:xlink="http://www.w3.org/1999/xlink" x="0px" y="0px"
	 viewBox="0 0 566.9 566.9" style="enable-background:new 0 0 566.9 566.9;" xml:space="preserve">
<style type="text/css">
	.st0{fill:#ED6E08;}
	.st1{fill:#ECF1F8;}
	.st2{fill:#FFFFFF;}
</style>
<g id="Layer_3">
	<rect x="0.6" y="0" class="st0" width="563.1" height="566.9"/>
</g>
<g id="Layer_1">
	<g id="Laag_1_1_">
		<g>
			<path class="st1" d="M566.3,532.6V426.2c-8.7-4.8-18.8-7.6-29.5-7.6c-26.5,0-49,17-57.3,40.8c-2.1-0.3-4.2-0.5-6.3-0.5
				c-9.6,0-18.5,2.9-26.1,7.7c-3.2-23.4-23.3-41.4-47.6-41.4c-21.1,0-39,13.7-45.4,32.7c-4.4-1.8-9.1-2.8-14.1-2.8
				c-17.4,0-32,12.1-35.9,28.3c-2-0.4-4.1-0.5-6.3-0.5c-11.8,0-22.3,5.6-29.1,14.2c-5-6.4-12.9-10.6-21.6-10.6
				c-2.6,0-5.2,0.4-7.6,1.1c-5.9-12.6-18.7-21.4-33.5-21.4c-20.4,0-36.9,16.6-36.9,37c0,12.6,6.3,23.7,15.8,30.4h42.2
				c0.1-0.1,0.2-0.2,0.3-0.2c0.1,0.1,0.2,0.2,0.2,0.2h104.6c0.6-1.6,1.2-3.3,1.6-5c2,0.4,4.1,0.5,6.3,0.5c13,0,24.5-6.8,31-17
				c8,5.9,17.8,9.4,28.4,9.4c9.6,0,18.5-2.9,26.1-7.7c1,7.3,3.6,14,7.5,19.8h131.2C565,533.2,565.6,532.9,566.3,532.6z"/>
			<path class="st2" d="M566.6,404.4c-14.9,5.1-26.1,18.3-28.1,34.4c-30.2,5.3-53.2,31.7-53.2,63.6c0,2.1,0.1,4.2,0.3,6.2
				c-1.9-0.2-3.8-0.4-5.7-0.4c-12.5,0-23.7,5.5-31.4,14.2c-8.8-25-32.6-43-60.7-43c-19.6,0-37.2,8.8-49,22.7c-1-0.1-2-0.1-2.9-0.1
				c-11.7,0-22.2,4.8-29.8,12.5c-6.4-4-14-6.3-22.1-6.3c-8.1,0-15.7,2.3-22.1,6.3c-7.6-7.7-18.2-12.5-29.8-12.5c-1,0-2,0.1-2.9,0.1
				c-11.8-13.9-29.4-22.7-49-22.7c-28,0-51.8,17.9-60.7,43c-7.7-8.8-18.9-14.2-31.4-14.2c-2,0-3.8,0.2-5.7,0.4
				c0.2-2,0.3-4.1,0.3-6.2c0-31.8-23-58.3-53.2-63.6c-2-16.1-13.2-29.3-28.1-34.4v129.3h565.2V404.4z"/>
		</g>
	</g>
	<g>
		<path class="st2" d="M94.5,171.2V80.3h22.8c15.1,0,26.6,3.8,34.4,11.3c7.9,7.5,11.8,18.5,11.8,32.9c0,13.9-4.2,25.1-12.6,33.8
			c-8.4,8.6-20.1,13-34.9,13H94.5z M100.8,86.1v79.4h14.3c13.5,0,23.8-3.5,31.1-10.5c7.2-7,10.8-17.1,10.8-30.3
			c0-25.8-13.5-38.7-40.6-38.7H100.8z"/>
		<path class="st2" d="M244,134.9c0,25.3-10.8,37.9-32.3,37.9c-20.5,0-30.7-12.2-30.7-36.5v-56h6.2v55.1c0,21.1,8.6,31.6,25.7,31.6
			c16.6,0,24.9-10.2,24.9-30.7v-56h6.2V134.9z"/>
		<path class="st2" d="M290.8,86.1v85.1h-6.2V86.1h-26.2v-5.8h58.7v5.8H290.8z"/>
		<path class="st2" d="M384.1,168.2c-7.4,3-15,4.6-23,4.6c-12.4,0-22.6-4.2-30.4-12.5c-7.8-8.3-11.8-19.2-11.8-32.7
			c0-14.8,4.2-26.6,12.7-35.5c8.5-8.9,19.3-13.3,32.4-13.3c7,0,13.7,1.1,20,3.4v6.7c-6.4-2.9-13.1-4.3-20.2-4.3
			c-11.4,0-20.7,3.9-27.8,11.6c-7.1,7.7-10.7,18-10.7,30.9c0,12.4,3.4,22.2,10.2,29.3c6.8,7.2,15.5,10.7,26,10.7
			c8.4,0,15.9-1.6,22.5-4.9V168.2z"/>
		<path class="st2" d="M462.7,171.2v-43.6h-52.1v43.6h-6.3V80.3h6.3v41.6h52.1V80.3h6.2v90.9H462.7z"/>
		<path class="st2" d="M162.4,287.8h-22.3l-6.5-20.2h-32.3l-6.4,20.2H72.7l33.1-90.9h24.3L162.4,287.8z M128.9,251.8l-9.8-30.6
			c-0.7-2.3-1.2-5-1.5-8.2h-0.5c-0.2,2.7-0.7,5.3-1.6,7.9l-9.9,30.8H128.9z"/>
		<path class="st2" d="M240.6,287.8h-73.2V276l46.6-62.4h-43.2v-16.7h69.7v11.5l-45.6,62.8h45.7V287.8z"/>
		<path class="st2" d="M328.1,248.4c0,27.3-12.7,41-38.2,41c-24.7,0-37-13.3-37-40v-52.5h20.5v52.7c0,14.7,5.7,22.1,17.2,22.1
			c11.3,0,16.9-7.1,16.9-21.3v-53.5h20.5V248.4z"/>
		<path class="st2" d="M424.2,287.8h-23.5l-14.1-23.4c-1.1-1.8-2.1-3.4-3-4.8c-1-1.4-2-2.6-2.9-3.6c-1-1-2-1.8-3.1-2.3
			c-1.1-0.5-2.3-0.8-3.5-0.8h-5.5v34.8h-20.5v-90.9h32.5c22.1,0,33.1,8.2,33.1,24.7c0,3.2-0.5,6.1-1.5,8.8c-1,2.7-2.3,5.1-4.1,7.3
			s-3.9,4-6.4,5.6c-2.5,1.6-5.3,2.8-8.4,3.7v0.3c1.4,0.4,2.7,1.1,3.9,2.1c1.3,1,2.5,2.1,3.7,3.3c1.2,1.3,2.3,2.6,3.4,4.1
			c1.1,1.5,2.1,2.9,2.9,4.3L424.2,287.8z M368.4,212.2v25.3h8.9c4.4,0,7.9-1.3,10.6-3.8c2.7-2.6,4.1-5.8,4.1-9.6
			c0-7.9-4.8-11.9-14.3-11.9H368.4z"/>
		<path class="st2" d="M487.2,287.8h-54.5v-90.9h52.4v16.7h-32v20.2h29.7v16.6h-29.7v20.8h34V287.8z"/>
		<path class="st2" d="M142.6,404.4v-64.5c0-1.6,0.2-6,0.7-13.4h-0.3c-1.3,3.4-2.4,6.1-3.3,7.9l-32.3,70h-2l-32.5-69.6
			c-1.1-2.2-2.1-5.1-3-8.6h-0.3c0.3,4.1,0.4,8.1,0.4,12.1v66.1h-6.3v-90.9h5.8l33.9,73.2c0.2,0.4,0.4,1,0.7,1.7s0.5,1.4,0.8,2.2
			c0.4,1.1,0.9,2.3,1.3,3.7h0.4l0.7-2c0-0.2,0.8-2.2,2.2-6l33.4-72.7h5.6v90.9H142.6z"/>
		<path class="st2" d="M172,404.4v-90.9h42.5v5.8h-36.2v36.5h33.6v5.7h-33.6v37.3h38.3v5.7H172z"/>
		<path class="st2" d="M236.9,404.4v-90.9h42.5v5.8h-36.2v36.5h33.6v5.7h-33.6v37.3h38.3v5.7H236.9z"/>
		<path class="st2" d="M326.5,319.2v85.1h-6.2v-85.1H294v-5.8h58.7v5.8H326.5z"/>
		<path class="st2" d="M430.1,368c0,25.3-10.8,37.9-32.3,37.9c-20.5,0-30.7-12.2-30.7-36.5v-56h6.2v55.1c0,21.1,8.6,31.6,25.7,31.6
			c16.6,0,24.9-10.2,24.9-30.7v-56h6.2V368z"/>
		<path class="st2" d="M458.6,367.9v36.5h-6.3v-90.9h21.9c9.3,0,16.5,2.2,21.4,6.5c4.9,4.3,7.4,10.7,7.4,19c0,8.5-2.8,15.4-8.3,20.8
			c-5.5,5.4-13.2,8.1-23.2,8.1H458.6z M458.6,319.2v42.9h12.9c8.2,0,14.4-2,18.7-5.9c4.3-3.9,6.4-9.4,6.4-16.6
			c0-13.7-7.8-20.5-23.5-20.5H458.6z"/>
	</g>
</g>
<g id="Layer_2">
	<rect y="0" class="st2" width="14.4" height="566.9"/>
	<rect x="552.5" y="0" class="st2" width="14.2" height="566.9"/>
	
		<rect x="276.2" y="-276.2" transform="matrix(-1.836970e-16 1 -1 -1.836970e-16 290.4 -276.2268)" class="st2" width="14.2" height="566.6"/>
	
		<rect x="265.3" y="265.6" transform="matrix(-1.836970e-16 1 -1 -1.836970e-16 832.1924 265.0092)" class="st2" width="36.7" height="566.1"/>
</g>
</svg>
