<?xml version="1.0" encoding="utf-8"?>
<!-- Generator: Adobe Illustrator 25.2.2, SVG Export Plug-In . SVG Version: 6.00 Build 0)  -->
<svg version="1.1" id="Laag_1" xmlns="http://www.w3.org/2000/svg" xmlns:xlink="http://www.w3.org/1999/xlink" x="0px" y="0px" width="596.6px" height="228.6px"
	 viewBox="0 0 596.6 228.6" style="enable-background:new 0 0 596.6 228.6;" xml:space="preserve">
<style type="text/css">
	.st0{fill:#3C1547;}
	.st1{fill:#DF0E65;}
</style>
<path class="st0" d="M315.7,19.1v63h-11.1l-1.3-6.4c-3.5,4.6-8.3,6.9-14.4,6.9c-4.1,0-7.7-1-11-2.9c-3.2-1.9-5.8-4.7-7.6-8.3
	c-1.8-3.6-2.7-7.8-2.7-12.5c0-4.7,0.9-8.8,2.7-12.4c1.8-3.6,4.4-6.3,7.6-8.3c3.3-1.9,6.9-2.9,11-2.9c6,0,10.6,2.1,14,6.3V19.1H315.7
	z M300.1,68.7c2-2.4,3.1-5.6,3.1-9.6c0-4-1-7.3-3.1-9.7c-2-2.5-4.8-3.7-8.2-3.7s-6.2,1.2-8.2,3.7c-2.1,2.5-3.1,5.7-3.1,9.6
	s1,7.2,3.1,9.6c2.1,2.5,4.8,3.7,8.2,3.7S298.1,71.1,300.1,68.7z"/>
<path class="st0" d="M368.1,35.9v46.3h-11.2l-1.2-5.6c-1.6,1.9-3.5,3.4-5.7,4.5s-4.8,1.6-7.9,1.6c-5.4,0-9.8-1.7-13.2-5
	c-3.4-3.3-5.1-8.9-5.1-16.7V35.9h12.7v23.6c0,4.2,0.7,7.4,2.2,9.5c1.5,2.1,3.7,3.2,6.8,3.2c3.2,0,5.6-1.2,7.4-3.6
	c1.7-2.4,2.6-5.7,2.6-9.9V35.9H368.1z"/>
<path class="st0" d="M380.2,46.6h-7.6V35.9h7.6v-13h12.7v13h10.5v10.7h-10.5v20.3c0,1.6,0.3,2.8,1,3.5c0.7,0.7,1.8,1.1,3.5,1.1h6.6
	v10.7h-10.5c-8.8,0-13.2-4.4-13.2-13.2V46.6z"/>
<path class="st0" d="M445.9,77.9c-3.9,3.2-9,4.8-15.3,4.8c-4.8,0-9-1-12.6-2.9c-3.6-1.9-6.4-4.7-8.3-8.3c-2-3.6-2.9-7.7-2.9-12.4
	c0-4.7,1-8.9,2.9-12.5c1.9-3.6,4.7-6.3,8.4-8.3c3.6-1.9,7.8-2.9,12.6-2.9c6.2,0,11.2,1.6,15.1,4.7c3.9,3.2,6.3,7.5,7.2,13.1h-13.1
	c-0.5-2.3-1.6-4.1-3.2-5.4c-1.6-1.4-3.6-2-6-2c-3.3,0-5.9,1.2-7.9,3.7c-2,2.5-3,5.7-3,9.6s1,7.2,3,9.6c2,2.5,4.6,3.7,7.9,3.7
	c2.5,0,4.5-0.7,6.2-2.1c1.6-1.4,2.7-3.3,3.2-5.7h13C452.2,70.2,449.8,74.7,445.9,77.9z"/>
<path class="st0" d="M499.7,40.4c3.5,3.4,5.3,8.9,5.3,16.6v25.1h-12.7V57.6c0-3.8-0.8-6.8-2.3-8.8c-1.6-2-3.9-3-7-3
	c-3.2,0-5.8,1.1-7.6,3.3c-1.8,2.2-2.7,5.3-2.7,9.3v23.8h-12.7v-63h12.7v22.4c3.4-4.1,8-6.2,13.7-6.2C491.7,35.3,496.2,37,499.7,40.4
	z"/>
<path class="st0" d="M265,103.9h13.4l9.3,32.6l8.7-32.6h11.4l8.5,32.7l9.5-32.7h13l-15.2,46.3H310l-8.1-27.9l-8.3,27.9h-13.5
	L265,103.9z"/>
<path class="st0" d="M351.6,147.8c-3.7-1.9-6.5-4.7-8.5-8.3c-2-3.6-3-7.7-3-12.4c0-4.7,1-8.8,3-12.4c2-3.6,4.9-6.4,8.5-8.3
	c3.7-1.9,8-2.9,12.8-2.9s9.1,1,12.8,2.9c3.7,2,6.5,4.7,8.5,8.3c2,3.6,3,7.7,3,12.4c0,4.7-1,8.9-3,12.5c-2,3.6-4.9,6.3-8.5,8.3
	c-3.7,2-8,2.9-12.8,2.9S355.2,149.7,351.6,147.8z M372.8,136.6c2.1-2.5,3.1-5.7,3.1-9.6c0-4-1-7.2-3.1-9.6c-2.1-2.5-4.9-3.7-8.4-3.7
	c-3.5,0-6.3,1.2-8.3,3.7c-2.1,2.5-3.1,5.7-3.1,9.6c0,4,1,7.2,3.1,9.6c2.1,2.5,4.8,3.7,8.3,3.7C367.9,140.3,370.7,139.1,372.8,136.6z
	"/>
<path class="st0" d="M463.6,108.3c3.1,3.3,4.7,8.8,4.7,16.5v25.5h-12.7v-25.9c0-7-2.7-10.5-8-10.5c-2.8,0-5,1-6.7,2.9
	c-1.7,2-2.5,4.7-2.5,8.1v25.4h-12.7v-25.9c0-7-2.7-10.5-8.1-10.5c-2.8,0-5,1-6.6,3c-1.7,2-2.5,4.7-2.5,8.1v25.3h-12.7v-46.3h11.1
	l1.2,5.8c1.6-2,3.4-3.5,5.6-4.6c2.2-1.1,4.9-1.6,8.1-1.7c6.6,0,11.2,2.6,13.8,7.8c1.7-2.5,3.9-4.5,6.6-5.8c2.7-1.4,5.8-2,9.3-2
	C456.4,103.3,460.4,105,463.6,108.3z"/>
<path class="st0" d="M477.4,114.5c1.9-3.6,4.7-6.3,8.2-8.3c3.5-1.9,7.6-2.9,12.2-2.9c4.7,0,8.8,0.9,12.4,2.7
	c3.6,1.8,6.4,4.4,8.4,7.7c2,3.3,3,7.2,3.1,11.7c0,1.6-0.1,3.1-0.4,4.3h-33.6v0.4c0.3,3.4,1.4,6,3.2,7.9c1.9,1.9,4.4,2.9,7.7,2.9
	c2.6,0,4.7-0.6,6.4-1.7c1.7-1.1,2.8-2.7,3.4-4.9h12.5c-0.5,3.1-1.7,5.8-3.5,8.3c-1.9,2.5-4.3,4.4-7.4,5.8c-3.1,1.4-6.6,2.1-10.5,2.1
	c-5.2,0-9.6-1-13.4-2.9c-3.8-1.9-6.6-4.7-8.6-8.2c-2-3.6-3-7.7-3-12.5C474.4,122.3,475.4,118.1,477.4,114.5z M508.9,121.6
	c-0.4-2.8-1.6-5-3.5-6.5c-1.9-1.5-4.3-2.3-7.2-2.3c-2.8,0-5.1,0.8-7,2.4c-1.9,1.6-3,3.7-3.4,6.4H508.9z"/>
<path class="st0" d="M568.4,108.4c3.5,3.4,5.2,8.9,5.2,16.6v25.1h-12.7v-24.4c0-8-3.1-12-9.4-12c-3.3,0-5.9,1.1-7.7,3.3
	c-1.8,2.2-2.7,5.3-2.7,9.4v23.7h-12.7v-46.3h11.1l1.2,5.8c1.6-2,3.6-3.5,5.8-4.6c2.3-1.1,5.1-1.7,8.5-1.7
	C560.5,103.3,564.9,105,568.4,108.4z"/>
<path class="st1" d="M281,164.6c1.4,1.4,2.1,3,2.1,5.1c0,2-0.7,3.8-2.1,5.1c-1.4,1.4-3.1,2.1-5.2,2.1c-2.1,0-3.9-0.7-5.3-2.1
	c-1.4-1.4-2.1-3.1-2.1-5.1c0-2,0.7-3.7,2.1-5.1c1.4-1.3,3.2-2,5.3-2C277.9,162.6,279.7,163.3,281,164.6z M269.4,181.9h12.7v46.3
	h-12.7V181.9z"/>
<path class="st1" d="M330.8,186.4c3.5,3.4,5.2,8.9,5.2,16.6v25.1h-12.7v-24.4c0-8-3.1-12-9.4-12c-3.3,0-5.8,1.1-7.7,3.3
	c-1.8,2.2-2.7,5.3-2.7,9.4v23.7h-12.7v-46.3H302l1.2,5.8c1.6-2,3.6-3.5,5.8-4.6c2.3-1.1,5.1-1.7,8.5-1.7
	C322.9,181.3,327.3,183,330.8,186.4z"/>
<path class="st1" d="M369.3,192.6h-7.6v-10.7h7.6v-13H382v13h10.5v10.7H382v20.2c0,1.6,0.3,2.8,1,3.5c0.7,0.7,1.8,1.1,3.5,1.1h6.6
	v10.7h-10.5c-8.8,0-13.2-4.4-13.2-13.2V192.6z"/>
<path class="st1" d="M398.8,192.5c1.9-3.6,4.7-6.3,8.2-8.3c3.5-1.9,7.6-2.9,12.2-2.9c4.7,0,8.8,0.9,12.4,2.7
	c3.6,1.8,6.4,4.4,8.4,7.7c2,3.3,3,7.2,3.1,11.7c0,1.6-0.1,3.1-0.4,4.3h-33.6v0.4c0.3,3.4,1.4,6,3.2,7.9c1.9,1.9,4.4,2.9,7.7,2.9
	c2.6,0,4.7-0.6,6.4-1.7c1.7-1.1,2.8-2.7,3.4-4.9h12.5c-0.5,3.1-1.7,5.8-3.5,8.3c-1.9,2.5-4.3,4.4-7.4,5.8c-3.1,1.4-6.6,2.1-10.5,2.1
	c-5.2,0-9.6-1-13.4-2.9c-3.8-1.9-6.6-4.7-8.6-8.2c-2-3.6-3-7.7-3-12.5C395.9,200.3,396.9,196.1,398.8,192.5z M430.3,199.6
	c-0.4-2.8-1.6-5-3.5-6.5c-1.9-1.5-4.3-2.3-7.2-2.3c-2.8,0-5.1,0.8-7,2.4c-1.9,1.6-3,3.7-3.4,6.4H430.3z"/>
<path class="st1" d="M487.3,223.9c-3.9,3.2-9,4.8-15.3,4.8c-4.8,0-9-1-12.6-2.9c-3.6-1.9-6.4-4.7-8.3-8.3c-2-3.6-2.9-7.7-2.9-12.4
	c0-4.7,1-8.9,2.9-12.5c1.9-3.6,4.7-6.3,8.4-8.3c3.6-1.9,7.8-2.9,12.6-2.9c6.2,0,11.2,1.6,15.1,4.7c3.9,3.2,6.3,7.5,7.2,13.1h-13.1
	c-0.5-2.3-1.6-4.1-3.2-5.4c-1.6-1.4-3.6-2-6-2c-3.3,0-5.9,1.2-7.9,3.7c-2,2.5-3,5.7-3,9.6s1,7.2,3,9.6c2,2.5,4.6,3.7,7.9,3.7
	c2.5,0,4.5-0.7,6.2-2.1c1.6-1.4,2.7-3.3,3.2-5.7h13C493.6,216.2,491.2,220.7,487.3,223.9z"/>
<path class="st1" d="M541.1,186.4c3.5,3.4,5.3,8.9,5.3,16.6v25.1h-12.7v-24.6c0-3.8-0.8-6.8-2.3-8.8c-1.6-2-3.9-3-7-3
	c-3.2,0-5.8,1.1-7.6,3.3c-1.8,2.2-2.7,5.3-2.7,9.3v23.8h-12.7v-63H514v22.4c3.4-4.1,8-6.2,13.7-6.2
	C533.1,181.3,537.6,183,541.1,186.4z"/>
<path class="st0" d="M111.2,137.2c21,0,38.1-17.1,38.1-38.1S132.2,61,111.2,61S73.1,78.1,73.1,99.1S90.2,137.2,111.2,137.2z
	 M111.2,80.5c10.2,0,18.6,8.3,18.6,18.6s-8.3,18.6-18.6,18.6s-18.6-8.3-18.6-18.6S101,80.5,111.2,80.5z"/>
<path class="st0" d="M111.2,144.5c-5.2,0-10.2-1.1-14.7-3l-47.6,82.5c-1.1,1.9,0.3,4.3,2.5,4.3h46.2v-14.4l0-0.7
	c0-1.6-1.2-2.9-2.8-2.9h-16l27.4-47.4c3.9,0.5,7.7,0.5,11.6,0l27.4,47.4h-16c-1.6,0-2.8,1.3-2.8,2.8v0.5c0,0.1,0,0.1,0,0.2v14.5
	h46.2c2.2,0,3.5-2.4,2.5-4.3l-47.9-83C122.1,143.3,116.8,144.5,111.2,144.5z"/>
<path class="st0" d="M188.1,131.7c-5.2,0.2-10.2,3.6-15.5,3.6c-3.3,0-6.4-1.3-8.4-2.4c-3.7-2.1-4.6-7-8.8-8.5
	c-3.1-1.1-6.4,0-8.4,2.6c-2,2.6-2.1,6.1-0.2,8.8c2.5,3.6,7.5,3.2,10.5,6.2c1.6,1.6,3.7,4.2,4.6,7.4c1,3.7-0.1,7.2,0.1,10.9
	c0.7,15.1,13.5,26.8,28.6,26.1c15.1-0.7,26.8-13.5,26.1-28.6C216,142.7,203.2,131,188.1,131.7z M189.7,166.9c-4.3,0.2-8-3.1-8.2-7.5
	c-0.2-4.3,3.1-8,7.5-8.2s8,3.1,8.2,7.5C197.4,163,194.1,166.7,189.7,166.9z"/>
<path class="st0" d="M63.6,148.9c0.3-2.8,0.2-5.5-0.2-8.3c0.1,0,0.1,0.1,0.1,0.1c-0.3-1.7-0.7-3.4-0.6-5.1c0.3-6.2,7.3-3.6,8.8-9.4
	c1.1-4.2-1-7.9-5.2-9c-1.5-0.4-3.4-0.1-4.8,0.8c-1.6,1-2.3,3-3.8,3.9c-3.9,2.3-8.8-3.6-11.9-5.1c-3.4-1.7-7.1-2.8-10.9-3.2
	c-8.5-0.9-16.9,1.5-23.6,6.9C5,125.8,0.8,133.5-0.1,142c-0.9,8.5,1.5,16.9,6.9,23.6c5.4,6.7,13,10.9,21.5,11.8
	c0.6,0.1,1.2,0.1,1.9,0.1c7.9,0.4,15.5-2.1,21.7-7.1C58.5,165.1,62.7,157.4,63.6,148.9z M44.2,146.8L44.2,146.8
	c-0.4,3.3-2,6.3-4.6,8.4c-2.6,2.1-5.9,3.1-9.2,2.7c-3.3-0.4-6.3-2-8.4-4.6c-2.1-2.6-3.1-5.9-2.7-9.2c0.4-3.3,2-6.3,4.6-8.4
	c2.4-1.9,5.4-2.9,8.5-2.8c0.2,0,0.5,0,0.7,0.1c3.3,0.4,6.3,2,8.4,4.6C43.6,140.2,44.5,143.5,44.2,146.8z"/>
<path class="st0" d="M35.3,63.9c5.7-0.6,10.6-3.7,16.4-3.6c3.3,0.1,6.4,1.5,8.3,2.6c3.7,2.2,4.4,7.1,8.6,8.7
	c1.1,0.4,2.3,0.6,3.4,0.4c2-0.2,3.8-1.2,5.1-2.8c2.1-2.6,2.2-6,0.4-8.8c-2.4-3.7-7.4-3.3-10.4-6.4c-1.6-1.6-3.6-4.3-4.4-7.5
	c-0.7-3,0.1-5,0.7-7.9c0.7-3.2,0.9-6.5,0.5-9.8C62.2,11.2,46.4-1.7,28.8,0.1S-1.6,17.6,0.1,35.2C1.9,52.8,17.7,65.7,35.3,63.9z
	 M30.8,19.5c6.9-0.7,13,4.3,13.7,11.2c0.7,6.9-4.3,13-11.2,13.7c-6.9,0.7-13-4.3-13.7-11.2S23.9,20.2,30.8,19.5z"/>
<path class="st0" d="M153.1,77.4c0.2,0.1,0.5,0.2,0.7,0.2c3.9,1.1,5.1-1.9,7.6-3.9c3-2.4,8.3,2,10.7,3.7c2.1,1.5,4.4,2.7,6.9,3.7
	c1.1,0.4,2.3,0.8,3.4,1.1c7,1.9,14.4,1.4,21.1-1.6c7.9-3.4,13.9-9.7,17-17.7c3.1-8,3-16.7-0.4-24.5c-3.4-7.9-9.7-13.9-17.7-17
	c-16.5-6.5-35.1,1.7-41.6,18.1c-1.2,3-1.9,6.4-2.1,9.8c-0.2,3.4,0.5,6.9,0,10.3c-1,5.8-7.7,3-9.8,8.3
	C147.3,71.9,149,75.8,153.1,77.4z M179,46.7c2.4-6,8.8-9.2,14.9-7.5c0.4,0.1,0.9,0.3,1.3,0.4c3.1,1.2,5.6,3.6,6.9,6.7
	c1.3,3.1,1.4,6.5,0.2,9.6l0,0c-1.2,3.1-3.6,5.6-6.7,6.9c-3.1,1.3-6.5,1.4-9.6,0.2C179.7,60.4,176.5,53.1,179,46.7z"/>
</svg>
